<svg xmlns="http://www.w3.org/2000/svg" xmlns:xlink="http://www.w3.org/1999/xlink" fill="none" version="1.1" width="210" height="147" viewBox="0 0 210 147"><defs><clipPath id="master_svg0_1_16"><rect x="0" y="0" width="210" height="147" rx="0"/></clipPath></defs><g clip-path="url(#master_svg0_1_16)"><g><path d="M72.60939453125,40.398788359375004Q68.32239453125,34.897188359375,61.80799453125,32.406918359375Q55.29309453125,29.916548359375,48.42969453125,31.155507359375Q41.56609453125,32.394488359375,36.33339453125,37.005418359375Q31.28349453125,41.455168359375,29.15799453125,47.806768359375Q25.62769453125,46.849868359375,21.97789453125,47.283668359375Q17.071894531250003,47.865368359375,13.07436453125,50.767468359375Q9.07657453125,53.669468359375,7.0037245312500005,58.153768359375Q4.93092153125,62.637968359375,5.31041353125,67.56346835937501Q5.68992103125,72.488868359375,8.42517453125,76.602668359375Q10.595584531250001,79.867368359375,13.88269453125,82.003668359375Q17.16959453125,84.139868359375,21.03459453125,84.79756835937499Q21.07619453125,84.804668359375,21.11849453125,84.804668359375L59.12649453125,84.804668359375Q59.17339453125,84.804668359375,59.21949453125,84.79586835937499Q59.26559453125,84.787168359375,59.30929453125,84.770068359375Q59.35289453125,84.752868359375,59.39269453125,84.72786835937501Q59.43239453125,84.702968359375,59.46669453125,84.670968359375Q59.50109453125,84.639068359375,59.52899453125,84.601268359375Q59.55679453125,84.56346835937501,59.57709453125,84.521268359375Q59.59739453125,84.478968359375,59.60949453125,84.433568359375Q59.62159453125,84.38826835937499,59.62509453125,84.341468359375Q60.03169453125,78.837168359375,63.32549453125,74.408068359375Q66.61919453125,69.97906835937499,71.77389453125,68.005468359375Q76.92829453125,66.031968359375,82.33779453125,67.128768359375Q87.74719453125,68.225468359375,91.72609453125,72.05066835937501Q91.85739453125,72.176968359375,92.03909453125,72.189168359375Q92.08829453125,72.192468359375,92.13709453125,72.186068359375Q92.18589453125,72.179768359375,92.23259453125,72.16396835937499Q92.27929453125,72.148168359375,92.32189453125,72.123668359375Q92.36459453125,72.099068359375,92.40169453125,72.066668359375Q92.43879453125,72.034268359375,92.46879453125,71.99526835937499Q92.49889453125,71.956268359375,92.52069453125,71.912068359375Q92.54249453125,71.867968359375,92.55539453125,71.82036835937501Q92.56819453125,71.772868359375,92.57149453125,71.723768359375Q92.99629453125,65.394368359375,88.51339453125,60.872868359375005Q84.12119453125,56.442868359375,77.87399453125,56.782868359375Q78.26519453125,47.657368359375,72.60939453125,40.398788359375004ZM48.60729453125,32.139602359375Q55.19649453125,30.950166359375,61.45089453125,33.340998359375Q67.70499453125001,35.731728359375,71.82059453125,41.013438359375Q77.41949453125,48.198968359375,76.84579453125,57.290368359375Q76.84269453125,57.339468359375005,76.84919453125,57.388268359375004Q76.85579453125,57.437068359375004,76.87169453125,57.483668359375Q76.88759453125,57.530268359375,76.91239453125,57.572868359375Q76.93709453125,57.615468359375,76.96969453125,57.652468359375Q77.00219453125,57.689368359374996,77.04139453125,57.719268359375Q77.08049453125,57.749168359375,77.12469453125,57.770768359375Q77.16889453125,57.792468359375,77.21649453125,57.805068359375Q77.26409453125,57.817768359374995,77.31329453125,57.820868359375Q77.35099453125,57.823268359375,77.38859453125,57.819968359375Q83.54129453125,57.278268359375005,87.80319453125,61.576968359375Q91.58499453125,65.391268359375,91.60769453125,70.588868359375Q87.68849453125,67.193268359375,82.53659453125,66.148668359375Q76.84219453125,64.99416835937501,71.41629453125,67.071568359375Q65.99019453125,69.14906835937501,62.52309453125,73.81126835937499Q59.19499453125,78.286668359375,58.66709453125,83.804668359375L21.160994531249997,83.804668359375Q17.523594531249998,83.177268359375,14.42763453125,81.165168359375Q11.31387453125,79.141568359375,9.257934531250001,76.049068359375Q6.66694353125,72.152268359375,6.30745753125,67.486568359375Q5.94798653125,62.820968359375,7.91144453125,58.573368359374996Q9.87493453125,54.325568359375,13.661804531249999,51.576768359374995Q17.44849453125,48.827768359375,22.09569453125,48.276668359375Q25.78329453125,47.838468359375,29.34199453125,48.898668359375Q29.38869453125,48.912668359375004,29.43729453125,48.917268359375Q29.48579453125,48.921868359375,29.53429453125,48.917068359375Q29.58289453125,48.912268359375,29.62949453125,48.898068359375Q29.67619453125,48.883968359375004,29.71929453125,48.861068359375Q29.76239453125,48.838268359375,29.80019453125,48.807468359375Q29.83799453125,48.776668359375,29.86919453125,48.739168359375Q29.90039453125,48.701668359375,29.92369453125,48.658868359375Q29.94709453125,48.616068359375,29.96169453125,48.569568359375Q31.97079453125,42.182368359375,36.99449453125,37.755698359375Q42.01809453125,33.329058359375,48.60729453125,32.139602359375Z" fill-rule="evenodd" fill="#39c5bb" fill-opacity="1" style="mix-blend-mode:passthrough"/></g><g><path d="M197.992477734375,49.52022890625Q195.731177734375,47.75312890625,192.94487773437498,47.06092890625Q190.622477734375,46.48372890625,188.271577734375,46.73702890625Q189.89107773437502,42.99402890625,188.909677734375,38.93702890625Q187.815777734375,34.41428890625,184.024377734375,31.71552890625Q180.23337773437498,29.01703890625,175.601377734375,29.46428890625Q171.24887773437501,29.88456890625,168.157277734375,32.88834890625Q165.698677734375,30.04895890625,162.272277734375,28.45475890625Q158.592377734375,26.74254290625,154.535177734375,26.80953390625Q150.477577734375,26.87634190625,146.855277734375,28.70878890625Q143.232577734375,30.542158906250002,140.776777734375,33.77131890625Q137.583177734375,37.97222890625,137.218977734375,43.20232890625Q136.555877734375,43.090828906249996,135.641677734375,43.03812890625Q130.645607734375,42.797828906250004,126.481657734375,45.55752890625Q122.403567734375,48.260328906249995,120.641061734375,52.80092890625Q120.605071734375,52.89362890625,120.607303734375,52.993028906250004Q120.609534734375,53.092528906249996,120.649647734375,53.183528906250004Q120.689759734375,53.27452890625,120.761645734375,53.343228906250005Q120.833531734375,53.41202890625,120.926247734375,53.44792890625Q121.050975734375,53.49642890625,121.183214334375,53.47602890625Q123.596667734375,53.10472890625,126.036937734375,53.10472890625Q136.297777734375,53.10472890625,144.446077734375,58.91082890625Q152.142777734375,64.39512890625,155.684177734375,73.30202890625Q155.711977734375,73.37182890625,155.758977734375,73.43032890625Q155.805977734375,73.48892890625001,155.868077734375,73.53102890625Q155.930177734375,73.57322890625,156.001977734375,73.59522890625Q156.073777734375,73.61732890625001,156.14877773437502,73.61732890625001L189.181777734375,73.61732890625001Q192.044877734375,73.72602890625001,194.704877734375,72.66092890625Q197.369677734375,71.59402890625,199.36767773437498,69.53432890625001Q201.367477734375,67.47442890625,202.353277734375,64.77922890625Q203.34057773437502,62.08432890625,203.14377773437502,59.22062890625Q202.946977734375,56.35682890625,201.60077773437501,53.82212890625Q200.253877734375,51.28612890625,197.992477734375,49.52022890625ZM187.508477734375,47.85552890625Q190.125077734375,47.39052890625,192.703677734375,48.03142890625Q195.28327773437502,48.67232890625,197.376977734375,50.30832890625Q199.470577734375,51.94322890625,200.717577734375,54.29112890625Q201.963877734375,56.63782890625,202.146077734375,59.28912890625Q202.328377734375,61.94042890625,201.41407773437498,64.43572890625Q200.50157773437502,66.93082890625,198.649877734375,68.83802890625Q196.80027773437502,70.74482890625,194.333077734375,71.73262890625Q191.86617773437501,72.72042890624999,189.210577734375,72.61762890624999Q189.200977734375,72.61732890625001,189.191277734375,72.61732890625001L156.486377734375,72.61732890625001Q152.826377734375,63.65432890625,145.026377734375,58.09642890625Q136.617577734375,52.10472890625,126.036937734375,52.10472890625Q123.963657734375,52.10472890625,121.909164734375,52.364628906250005Q123.586477734375,48.67602890625,127.034107734375,46.39112890625Q130.924897734375,43.81242890625,135.584177734375,44.03652890625Q136.730177734375,44.10252890625,137.423777734375,44.261028906250004Q137.838077734375,44.35582890625,138.053577734375,44.13202890625Q138.208477734375,43.96672890625,138.195077734375,43.69892890625Q138.193677734375,43.67262890625,138.193777734375,43.65812890625Q138.443077734375,38.49352890625,141.572777734375,34.37665890625Q143.889377734375,31.33055890625,147.306777734375,29.60110890625Q150.723777734375,27.87242190625,154.551677734375,27.80939790625Q158.37897773437498,27.74620190625,161.850477734375,29.36142890625Q165.321277734375,30.97630890625,167.739577734375,33.94568890625Q167.759777734375,33.97047890625,167.782977734375,33.99250890625Q167.818677734375,34.02641890625,167.86027773437502,34.052708906250004Q167.901877734375,34.07899890625,167.947877734375,34.09666890625Q167.993877734375,34.11432890625,168.042377734375,34.12268890625Q168.090877734375,34.13104890625,168.14017773437502,34.12976890625Q168.189377734375,34.12849890625,168.237377734375,34.11764890625Q168.285477734375,34.10679890625,168.330477734375,34.086778906250004Q168.375477734375,34.06676890625,168.415677734375,34.03835890625Q168.455877734375,34.00994890625,168.489777734375,33.97423890625Q171.436677734375,30.87107890625,175.697477734375,30.45965890625Q179.957677734375,30.04830890625,183.444477734375,32.53021890625Q186.931577734375,35.01238890625,187.937777734375,39.17212890625Q188.94397773437498,43.332228906249995,186.976877734375,47.13342890625Q186.899077734375,47.28382890625,186.92867773437501,47.45072890625Q186.946077734375,47.54862890625,186.99967773437498,47.63242890625Q187.053177734375,47.716228906249995,187.134777734375,47.77312890625Q187.216277734375,47.830128906249996,187.313377734375,47.851528906249996Q187.410577734375,47.872928906249996,187.508477734375,47.85552890625Z" fill-rule="evenodd" fill="#39c5bb" fill-opacity="1" style="mix-blend-mode:passthrough"/></g><g><path d="M30.832577734375,69.73220664062501L63.148827734375,50.976806640625L72.558827734375,67.199706640625C69.903427734375,68.059906640625,67.463727734375,69.480306640625,65.404627734375,71.365006640625C63.345727734375,73.249606640625,61.715527734375,75.554506640625,60.624227734375,78.123706640625C59.533027734375,80.692906640625,59.006427734375,83.466406640625,59.079827734375,86.256806640625C59.153327734375,89.047206640625,59.825027734375,91.789106640625,61.049927734375,94.297406640625C56.538227734375,93.37550664062499,51.855027734375,93.800906640625,47.583427734375,95.520806640625C43.311727734375,97.240606640625,39.640227734375,100.178906640625,37.025927734375,103.96970664062499L26.450927734375,85.73250664062499L30.832577734375,69.73220664062501Z" fill-rule="evenodd" fill="#FFE3AC" fill-opacity="1" style="mix-blend-mode:passthrough"/></g><g><path d="M36.701027734375,79.8447265625L27.561507734375,87.6354065625L26.450927734375,85.7329165625L36.701027734375,79.8447265625Z" fill="#209BFC" fill-opacity="1" style="mix-blend-mode:passthrough"/></g><g><path d="M36.451927734375,79.4111705625L26.201870734375,85.2993565625Q26.200360734375,85.3002265625,26.198856734375,85.30109656249999Q26.112964734375,85.3512365625,26.052797734375,85.4304365625Q25.992631734375,85.5096265625,25.967350734375,85.6058165625Q25.942069734375,85.7020065625,25.955523734375,85.8005465625Q25.968976734375,85.8990865625,26.019116734375,85.9849865625L27.129700734375,87.8874765625Q27.152132734375,87.9258965625,27.180996734375,87.9597665625Q27.212942734375,87.9972365625,27.251586734375,88.0277665625Q27.290230734375,88.0582865625,27.334087734375,88.0806865625Q27.377944734375,88.1030865625,27.425328734375,88.1164965625Q27.472707734375,88.1299165625,27.521797734375,88.1338265625Q27.570887734375,88.1377365625,27.619797734375,88.1319965625Q27.668707734375,88.1262465625,27.715557734375,88.1110765625Q27.762407734375,88.0959065625,27.805397734375,88.0718865625Q27.848387734375,88.0478665625,27.885867734375,88.0159165625L37.025427734375,80.2252415625Q37.058427734375,80.1970675625,37.086127734375,80.1636155625Q37.113827734375,80.1301645625,37.135327734375,80.0924375625Q37.156827734375,80.0547105625,37.171527734375,80.0138385625Q37.186227734375,79.9729675625,37.193627734375,79.9301747625Q37.201127734375,79.8873823625,37.201027734375,79.8439510575Q37.200927734375,79.8005197625,37.193427734375,79.7577505625Q37.185827734374996,79.7149815625,37.171027734375,79.6741555625Q37.156227734375,79.6333295625,37.134627734375,79.5956695625Q37.085027734375004,79.5094295625,37.006227734375,79.4487135625Q36.927527734375,79.3879965625,36.831527734375,79.3620465625Q36.735427734375,79.3360965625,36.636827734375004,79.3488635625Q36.538227734375,79.3616305625,36.451927734375,79.4111705625ZM27.136570734375,85.91566656250001L27.692007734375,86.8671665625L32.262957734375,82.9708165625L27.136570734375,85.91566656250001Z" fill-rule="evenodd" fill="#39c5bb" fill-opacity="1" style="mix-blend-mode:passthrough"/></g><g><path d="M31.265097734375,69.481317734375L37.133527734375,79.593337734375Q37.134027734374996,79.594287734375,37.134627734375,79.595247734375Q37.184127734375,79.681487734375,37.196927734375,79.780077734375Q37.209627734375,79.878777734375,37.183727734375,79.974777734375Q37.157727734375,80.070777734375,37.097027734375004,80.149577734375Q37.036327734375,80.228277734375,36.950127734375,80.277877734375L26.700247734375,86.165877734375L26.699984734375,86.166077734375Q26.584319734375,86.232477734375,26.450927734375,86.232477734375Q26.401682034375,86.232477734375,26.353382634375,86.222877734375Q26.305082734375,86.213277734375,26.259585734375,86.194477734375Q26.214088734375,86.175577734375,26.173142734375,86.148277734375Q26.132196734375,86.120877734375,26.097374734375,86.086077734375Q26.062552734375,86.05127773437499,26.035192734375,86.010277734375Q26.007833734375,85.969377734375,25.988987734375,85.923877734375Q25.970142734375,85.878377734375,25.960534734375,85.830077734375Q25.950927734375,85.781777734375,25.950927734375,85.732477734375Q25.950927734375,85.666577734375,25.968035734375,85.602777734375Q25.985142734375,85.539077734375,26.018187734375,85.482077734375Q26.051231734375,85.424977734375,26.097951734375,85.378377734375Q26.144671734375,85.331777734375,26.201870734375,85.298977734375L26.202133734375,85.298777734375L36.016497734375,79.660907734375L30.400357734375,69.983553734375L30.400127734375,69.983145734375Q30.332577734375,69.866751734375,30.332577734375,69.732177734375Q30.332577734375,69.682932034375,30.342187734375,69.634632634375Q30.351787734375,69.586332734375,30.370637734375,69.540835734375Q30.389487734375,69.495338734375,30.416837734375,69.454392734375Q30.444197734375,69.413446734375,30.479027734375002,69.378624734375Q30.513847734375,69.343802734375,30.554787734375,69.316442734375Q30.595737734375,69.289083734375,30.641237734375,69.270237734375Q30.686727734375,69.251392734375,30.735027734375,69.241784734375Q30.783327734375,69.232177734375,30.832577734375,69.232177734375Q30.898257734375,69.232177734375,30.961717734375,69.249142734375Q31.025167734375,69.266107734375,31.082097734375,69.298885734375Q31.139017734375,69.331663734375,31.185537734375,69.378031734375Q31.232057734375,69.424398734375,31.265027734375,69.481209734375L31.265097734375,69.481317734375Z" fill-rule="evenodd" fill="#39c5bb" fill-opacity="1" style="mix-blend-mode:passthrough"/></g><g><path d="M30.350337734375,69.600206640625L25.968683734375,85.600506640625Q25.942161734375,85.697306640625,25.955087734375,85.796906640625Q25.968014734375,85.896506640625,26.018385734375,85.983306640625L36.593327734375,104.22050664062499Q36.649627734375,104.317606640625,36.742027734375,104.381306640625Q36.782527734375,104.409206640625,36.827827734375,104.428706640625Q36.873027734375,104.44830664062499,36.921127734375,104.45860664062499Q36.969327734375,104.468906640625,37.018527734375,104.469606640625Q37.067827734375,104.470306640625,37.116227734375,104.461406640625Q37.164627734375,104.452506640625,37.210427734375,104.434406640625Q37.256227734375,104.416206640625,37.297527734375,104.389406640625Q37.338927734375,104.36270664062499,37.374227734375,104.32840664062499Q37.409527734375004,104.294106640625,37.437527734374996,104.253506640625Q41.360427734375,98.56520664062501,47.770227734375,95.984706640625Q54.179827734374996,93.404006640625,60.949827734375,94.78730664062499Q61.116427734375,94.821306640625,61.269327734375,94.746706640625Q61.313527734375,94.725106640625,61.352727734375,94.695206640625Q61.391927734375,94.66540664062501,61.424527734375,94.628506640625Q61.457127734375,94.591606640625,61.481927734375,94.549106640625Q61.506727734375,94.50650664062499,61.522727734375,94.45990664062501Q61.538727734375,94.413406640625,61.545327734375,94.364606640625Q61.551927734375,94.315806640625,61.548927734375,94.266606640625Q61.545927734375,94.217506640625,61.533327734375,94.169806640625Q61.520827734375,94.122206640625,61.499227734375,94.078006640625Q59.688327734375,90.36950664062499,59.579627734375,86.243606640625Q59.471027734375,82.11780664062499,61.084427734375,78.319206640625Q62.697927734375,74.520406640625,65.742227734375,71.733806640625Q68.786727734375,68.947206640625,72.712927734375,67.675406640625Q72.763627734375,67.659006640625,72.809727734375,67.632206640625Q72.895727734375,67.582306640625,72.956127734375,67.503306640625Q73.016527734375,67.424306640625,73.042027734375,67.328206640625Q73.06762773437501,67.232006640625,73.054427734375,67.133506640625Q73.041227734375,67.034906640625,72.991327734375,66.948806640625L63.581327734375,50.725827640625Q63.531327734375,50.639809640625,63.452327734375,50.579443640625Q63.373327734375,50.519077640625,63.277127734375,50.493552640625Q63.181027734375,50.468028640625,63.082427734375,50.481232640625Q62.983927734375,50.494437640625,62.897827734375,50.544360640625L30.581597734375002,69.29980664062501Q30.496447734375,69.349206640625,30.436397734375,69.427206640625Q30.376337734375,69.505206640625,30.350337734375,69.600206640625ZM26.988444734375,85.662806640625L37.069027734375,103.04730664062501Q41.073127734375,97.602806640625,47.396727734375,95.05700664062499Q53.631727734375005,92.546606640625,60.193427734375,93.630706640625Q58.681427734375,90.123306640625,58.579927734375,86.26990664062501Q58.465727734375,81.92690664062499,60.164027734375,77.928206640625Q61.862427734375,73.929406640625,65.06712773437499,70.996106640625Q68.043427734375,68.271906640625,71.820327734375,66.923006640625L62.967227734375,51.660293640625L31.260717734375,70.06180664062501L26.988444734375,85.662806640625Z" fill-rule="evenodd" fill="#39c5bb" fill-opacity="1" style="mix-blend-mode:passthrough"/></g><g><path d="M179.99198437500002,112.075820703125C180.751084375,112.028520703125,181.491384375,111.820620703125,182.164484375,111.465720703125C182.837484375,111.11192070312501,183.426584375,110.618420703125,183.894884375,110.018820703125C184.330584375,109.461320703125,184.65298437500002,108.82292070312499,184.841884375,108.140420703125L194.078784375,75.025920703125L149.583984375,62.751220703125C158.511084375,72.303380703125,161.528784375,87.030120703125,154.823494375,99.931720703125C159.777384375,98.477320703125,165.095584375,98.914420703125,169.746084375,101.158220703125C174.396484375,103.402020703125,178.047384375,107.293020703125,179.99198437500002,112.075820703125Z" fill-rule="evenodd" fill="#FFE3AC" fill-opacity="1" style="mix-blend-mode:passthrough"/></g><g><path d="M149.5839446875,62.751124609375L194.0787046875,75.025874609375L195.4616046875,70.134274609375C195.7503046875,69.105724609375,195.7272046875,68.014144609375,195.3923046875,66.999314609375C195.0573046875,65.984494609375,194.4284046875,65.092514609375,193.5842046875,64.437314609375C193.02450468749998,64.001564609375,192.3840046875,63.680584609375,191.7005046875,63.492844609375L180.5978046875,60.439124609375C179.9132046875,60.251074609375,179.1992046875,60.199934609375,178.4946046875,60.288454609375C177.7901046875,60.377074609375,177.1107046875,60.603554609375,176.4944046875,60.955204609375C168.8231046875,65.296114609375,168.5396046875,65.519654609375,168.3390046875,65.460124609375C168.3159046875,65.452874609375,168.2949046875,65.443424609375,168.2655046875,65.435024609375L145.6748046875,59.198974609375C147.0723446875,60.274594609375,148.3795946875,61.462564609375,149.5839446875,62.751124609375Z" fill-rule="evenodd" fill="#209BFC" fill-opacity="1" style="mix-blend-mode:passthrough"/></g><g><path d="M194.079796875,75.026201953125L193.940196875,75.529801953125C194.073496875,75.566401953125,194.215296875,75.549001953125,194.335996875,75.481301953125C194.455696875,75.413601953125,194.544996875,75.301001953125,194.581696875,75.168301953125L194.079796875,75.026201953125ZM149.585026875,62.751401953125L149.201766875,63.107671953125C149.267926875,63.178331953125,149.352966875,63.229261953125004,149.445366875,63.254981953125L149.585026875,62.751401953125ZM195.462696875,70.134701953125L195.96559687500002,70.276801953125L195.96559687500002,70.276801953125L195.462696875,70.134701953125ZM191.701596875,63.493231953125L191.562996875,63.996811953125004L191.563996875,63.996811953125004L191.701596875,63.493231953125ZM180.598896875,60.439411953125L180.738496875,59.935831953125L180.737496875,59.935831953125L180.598896875,60.439411953125ZM176.49549687500001,60.955481953125L176.752696875,61.409921953125L176.754796875,61.408871953125L176.49549687500001,60.955481953125ZM168.266596875,65.435411953125L168.407296875,64.931831953125L168.406296875,64.931831953125L168.266596875,65.435411953125ZM145.675867875,59.199253953125L145.815513875,58.695675253125C145.698971875,58.663647853125,145.574017875,58.672996523125,145.463772875,58.722343453125C145.353526875,58.771694353125,145.263212875,58.857898953125,145.209667975,58.966153953125C145.155065918,59.074512953125,145.140373975,59.198204953125,145.167674975,59.316224953125C145.194976075,59.434140953125,145.262170875,59.539034953125,145.357724875,59.612954953125L145.675867875,59.199253953125ZM194.218396875,74.522601953125L149.722576875,62.247821953125L149.445366875,63.254981953125L193.940196875,75.529801953125L194.218396875,74.522601953125ZM194.959696875,69.992601953125L193.576896875,74.884201953125L194.581696875,75.168301953125L195.96559687500002,70.276801953125L194.959696875,69.992601953125ZM195.103596875,68.096321953125C195.181296875,68.732101953125,195.131896875,69.376901953125,194.959696875,69.992601953125L195.96559687500002,70.276801953125C196.175596875,69.526001953125,196.23439687500002,68.742501953125,196.14099687499998,67.969901953125L195.103596875,68.096321953125ZM194.508196875,66.288961953125C194.823196875,66.84630195312499,195.025896875,67.460551953125,195.103596875,68.096321953125L196.14099687499998,67.969901953125C196.046496875,67.198361953125,195.800796875,66.452021953125,195.416496875,65.774881953125L194.508196875,66.288961953125L194.508196875,66.288961953125ZM193.264996875,64.849301953125C193.770096875,65.243161953125,194.192196875,65.732141953125,194.508196875,66.288961953125L195.416496875,65.774881953125C195.033196875,65.097731953125,194.519796875,64.503011953125,193.90549687499998,64.024951953125L193.264996875,64.849301953125L193.264996875,64.849301953125ZM191.563996875,63.996811953125004C192.181396875,64.166071953125,192.758896875,64.456501953125,193.264996875,64.849301953125L193.90549687499998,64.024951953125C193.292296875,63.547091953125,192.589896875,63.195241953125,191.839096875,62.989651953125L191.563996875,63.996811953125004ZM180.46029687499998,60.942991953125L191.562996875,63.996811953125004L191.840196875,62.989651953125L180.738496875,59.935831953125L180.46029687499998,60.942991953125ZM178.560796875,60.807121953125C179.197096875,60.727111953125004,179.842896875,60.773201953125,180.46029687499998,60.942991953125L180.737496875,59.935831953125C179.986696875,59.729611953125,179.202396875,59.673540953125,178.430596875,59.770771953125L178.560796875,60.807121953125ZM176.754796875,61.408871953125C177.31129687499998,61.091351953125,177.924496875,60.886501953125,178.560796875,60.807121953125L178.430596875,59.770771953125C177.657796875,59.868101953125,176.912296875,60.116641953125,176.236096875,60.502091953125L176.754796875,61.408871953125ZM168.190996875,65.960941953125C168.441996875,66.035071953125,168.657196875,65.949391953125,168.837796875,65.866861953125C169.036296875,65.775931953125,169.348096875,65.606771953125,169.872096875,65.313191953125C170.927296875,64.722881953125,172.922296875,63.578911953125,176.752696875,61.409921953125L176.238196875,60.501041953125C172.397296875,62.674121953125,170.414896875,63.811801953125,169.360696875,64.402111953125C168.829396875,64.699891953125,168.554296875,64.847201953125,168.402096875,64.917241953125C168.231996875,64.994521953125,168.336996875,64.914091953125,168.488196875,64.959031953125L168.190996875,65.960941953125ZM168.126996875,65.938991953125C168.120696875,65.936891953125,168.116496875,65.934791953125,168.124896875,65.938991953125L168.146896875,65.946241953125L168.190996875,65.960941953125L168.488196875,64.959031953125L168.498696875,64.963121953125L168.488196875,64.959031953125C168.460896875,64.948001953125,168.433596875,64.93929195312501,168.407296875,64.931831953125L168.126996875,65.938991953125ZM145.536222875,59.702831953125L168.126996875,65.938991953125L168.406296875,64.931831953125L145.815513875,58.695675253125L145.536222875,59.702831953125ZM145.357724875,59.612954953125C146.732166875,60.671351953125,148.018416875,61.840531953125,149.201766875,63.107671953125L149.966166875,62.395141953125C148.742926875,61.085681953125,147.413616875,59.878391953125,145.994027875,58.785552953125L145.357724875,59.612954953125Z" fill="#39c5bb" fill-opacity="1" style="mix-blend-mode:passthrough"/></g><g><path d="M154.964334375,100.411520703125Q162.476784375,98.206020703125,169.528784375,101.60852070312501Q176.579584375,105.01042070312499,179.528784375,112.264120703125Q179.558384375,112.336920703125,179.608884375,112.397120703125Q179.659384375,112.45732070312499,179.725884375,112.499120703125Q179.792384375,112.54092070312501,179.868484375,112.560320703125Q179.944684375,112.57972070312499,180.023084375,112.574820703125Q181.281684375,112.496520703125,182.39768437499998,111.908020703125Q183.51078437500001,111.32282070312499,184.288884375,110.326620703125Q185.011284375,109.40222070312501,185.323784375,108.273820703125L194.560384375,75.160220703125Q194.58708437500002,75.064520703125,194.575184375,74.965720703125Q194.563184375,74.86702070312501,194.514284375,74.780420703125Q194.46548437500002,74.693720703125,194.387184375,74.632420703125Q194.308884375,74.571020703125,194.213084375,74.544320703125L194.211784375,74.543920703125L149.716951375,62.269224703125Q149.669479275,62.256128703125,149.620364075,62.252545703125Q149.571248975,62.248962703125,149.522378475,62.255030703125Q149.473508375,62.261098703125,149.426760375,62.276583703125Q149.380012375,62.292068703125,149.337184375,62.316376703125Q149.294355375,62.340683703125,149.257092375,62.372879703125Q149.219829375,62.405075703125,149.189563375,62.443923703125Q149.159296375,62.482770703125,149.137191375,62.526775703125Q149.115085375,62.570780703125,149.101988375,62.618253703125Q149.084930375,62.680089503125,149.084033375,62.744229163125Q149.083136375,62.808368803125,149.098459375,62.870657703125Q149.113782375,62.932946703125,149.144332375,62.989350703125Q149.174882375,63.045754703125,149.218681375,63.092619703125Q156.012924375,70.362590703125,157.572094375,80.164020703125Q159.20356437499998,90.419920703125,154.379834375,99.701120703125Q154.333964375,99.789420703125,154.325364375,99.88852070312501Q154.316764375,99.987520703125,154.346734375,100.082420703125Q154.376704375,100.177220703125,154.440684375,100.253420703125Q154.504664375,100.329520703125,154.592904375,100.375420703125Q154.678794375,100.420020703125,154.775124375,100.429420703125Q154.871464375,100.438720703125,154.964334375,100.411520703125ZM180.311784375,111.542520703125Q177.192184375,104.195720703125,169.963384375,100.707920703125Q163.075184375,97.384320703125,155.768204375,99.160620703125Q160.155084375,90.036420703125,158.559674375,80.006920703125Q157.087124375,70.749960703125,151.085074375,63.683999703125L193.462484375,75.374620703125L184.36008437499999,108.007020703125Q184.100784375,108.943420703125,183.500784375,109.711120703125Q182.855084375,110.53782070312499,181.931184375,111.023520703125Q181.162284375,111.428920703125,180.311784375,111.542520703125Z" fill-rule="evenodd" fill="#081F75" fill-opacity="1" style="mix-blend-mode:passthrough"/></g><g><path d="M11.706855718749999,98.6210687275L11.70685671875,98.6201171875Q11.70685671875,98.5708714875,11.69724871875,98.5225720875Q11.68764171875,98.4742721875,11.66879671875,98.4287751875Q11.64995071875,98.3832781875,11.62259171875,98.3423321875Q11.59523171875,98.3013861875,11.56040971875,98.2665641875Q11.52558771875,98.2317421875,11.48464171875,98.2043821875Q11.44369571875,98.1770231875,11.39819871875,98.1581771875Q11.35270071875,98.1393321875,11.30440171875,98.1297241875Q11.25610231875,98.1201171875,11.20685661875,98.1201171875Q11.15767091875,98.1201171875,11.10942811875,98.1297011875Q11.06118571875,98.1392851875,11.01573471875,98.1580861875Q10.97028371875,98.1768871875,10.92936871875,98.2041841875Q10.888452718749999,98.2314811875,10.85363971875,98.2662271875Q10.81882771875,98.3009741875,10.79145271875,98.3418381875Q10.76407771875,98.3827011875,10.745190718749999,98.4281161875Q10.72630271875,98.4735311875,10.71662671875,98.5217555875Q10.70695071875,98.5699800875,10.70685771875,98.6191656475L10.706855718749999,98.62011718575528L10.68701271875,109.0469171875L10.68701171875,109.0479171875Q10.68701171875,109.0971171875,10.69661871875,109.1454171875Q10.706226718749999,109.1937171875,10.72507171875,109.2392171875Q10.74391771875,109.28471718750001,10.77127671875,109.3257171875Q10.79863671875,109.3666171875,10.83345871875,109.4014171875Q10.86828071875,109.4362171875,10.90922671875,109.4636171875Q10.95017271875,109.4910171875,10.99566971875,109.5098171875Q11.04116671875,109.5287171875,11.08946661875,109.5383171875Q11.13776601875,109.5479171875,11.18701171875,109.5479171875Q11.23619731875,109.5479171875,11.28444021875,109.5383171875Q11.33268271875,109.5287171875,11.37813371875,109.5099171875Q11.42358371875,109.4911171875,11.46449971875,109.4638171875Q11.50541571875,109.4365171875,11.54022871875,109.4018171875Q11.57504071875,109.3670171875,11.60241571875,109.3261171875Q11.62979071875,109.2853171875,11.64867771875,109.2399171875Q11.66756571875,109.1945171875,11.67724171875,109.1462171875Q11.68691771875,109.0980171875,11.68701071875,109.04881718749999L11.68701271875,109.0479171875L11.706855718749999,98.6210687275Z" fill-rule="evenodd" fill="#39c5bb" fill-opacity="1" style="mix-blend-mode:passthrough"/></g><g><path d="M5.992431640625,103.3330078125L16.401231640625,103.3330078125Q16.450531640625,103.3330078125,16.498831640625,103.3426148125Q16.547131640625,103.3522228125,16.592631640625,103.3710678125Q16.638131640624998,103.3899138125,16.679031640625,103.4172728125Q16.720031640625002,103.4446328125,16.754831640625,103.4794548125Q16.789631640625,103.5142768125,16.817031640625,103.5552228125Q16.844331640625,103.5961688125,16.863231640625,103.6416658125Q16.882031640625,103.6871628125,16.891631640625,103.7354627125Q16.901231640625,103.7837621125,16.901231640625,103.8330078125Q16.901231640625,103.8822535125,16.891631640625,103.9305529125Q16.882031640625,103.9788528125,16.863231640625,104.0243498125Q16.844331640625,104.0698468125,16.817031640625,104.1107928125Q16.789631640625,104.1517388125,16.754831640625,104.1865608125Q16.720031640625002,104.2213828125,16.679031640625,104.2487428125Q16.638131640624998,104.2761018125,16.592631640625,104.2949478125Q16.547131640625,104.3137928125,16.498831640625,104.3234008125Q16.450531640625,104.3330078125,16.401231640625,104.3330078125L5.992431640625,104.3330078125Q5.943185940625,104.3330078125,5.894886540625,104.3234008125Q5.846586640625,104.3137928125,5.801089640625,104.2949478125Q5.755592640625,104.2761018125,5.714646640625,104.2487428125Q5.673700640625,104.2213828125,5.638878640625,104.1865608125Q5.604056640625,104.1517388125,5.576696640625,104.1107928125Q5.549337640625,104.0698468125,5.530491640625,104.0243498125Q5.511646640625,103.9788528125,5.502038640625,103.9305529125Q5.492431640625,103.8822535125,5.492431640625,103.8330078125Q5.492431640625,103.7837621125,5.502038640625,103.7354627125Q5.511646640625,103.6871628125,5.530491640625,103.6416658125Q5.549337640625,103.5961688125,5.576696640625,103.5552228125Q5.604056640625,103.5142768125,5.638878640625,103.4794548125Q5.673700640625,103.4446328125,5.714646640625,103.4172728125Q5.755592640625,103.3899138125,5.801089640625,103.3710678125Q5.846586640625,103.3522228125,5.894886540625,103.3426148125Q5.943185940625,103.3330078125,5.992431640625,103.3330078125Z" fill-rule="evenodd" fill="#39c5bb" fill-opacity="1" style="mix-blend-mode:passthrough"/></g><g><path d="M204.752335703125,115.887562109375Q204.752335703125,114.565192109375,203.816665703125,113.627575109375L203.815925703125,113.626843109375Q202.878315703125,112.691162109375,201.555935703125,112.691162109375Q200.232655703125,112.691162109375,199.296643703125,113.627205109375Q198.360595703125,114.563242109375,198.360595703125,115.887562109375Q198.360595703125,117.212782109375,199.296268703125,118.146492109375Q200.230715703125,119.082902109375,201.555935703125,119.082902109375Q202.880265703125,119.082902109375,203.816295703125,118.14686210937501Q204.752335703125,117.210832109375,204.752335703125,115.887562109375ZM203.108815703125,114.333952109375L203.109555703125,114.334682109375Q203.752335703125,114.979322109375,203.752335703125,115.887562109375Q203.752335703125,116.796612109375,203.109195703125,117.43975210937501Q202.466045703125,118.082902109375,201.555935703125,118.082902109375Q200.645545703125,118.082902109375,200.004115703125,117.440132109375Q199.360595703125,116.797952109375,199.360595703125,115.887562109375Q199.360595703125,114.977452109375,200.003745703125,114.334312109375Q200.646875703125,113.691162109375,201.555935703125,113.691162109375Q202.464195703125,113.691162109375,203.108815703125,114.333952109375Z" fill-rule="evenodd" fill="#39c5bb" fill-opacity="1" style="mix-blend-mode:passthrough"/></g><g><path d="M56.3490765625,141.26919218749998L160.6919765625,141.2733921875L160.6919765625,141.2733921875Q165.3349765625,141.2717921875,169.5559765625,139.3434921875Q173.7769765625,137.41569218749999,176.8179765625,133.90629218750001Q179.8589765625,130.3982921875,181.1659765625,125.9444921875Q182.4739765625,121.4921921875,181.8129765625,116.8967921875Q181.1539765625,112.3015921875,178.6439765625,108.39499218750001Q174.8039765625,102.4220921875,168.1509765625,99.93899218749999Q162.0279765625,97.6530921875,155.7679765625,99.16239218749999Q159.3249765625,91.7507921875,158.9289765625,83.5692921875Q158.5279765625,75.2738921875,154.20597656249998,68.0613921875Q149.8609765625,60.8111921875,142.7049765625,56.5876621875Q135.1089765625,52.1044921875,126.0367765625,52.1044931875Q115.2280765625,52.1030171875,106.5211765625,58.5077021875Q98.2351765625,64.6023921875,94.9203765625,74.2423921875Q90.74437656250001,68.2402921875,83.5381765625,66.3933921875Q75.82147656250001,64.4156921875,68.85907656250001,68.2867921875Q61.8968765625,72.1578921875,59.5045765625,79.75629218750001Q57.259676562500005,86.8859921875,60.1929765625,93.6311921875Q55.6926765625,92.8939921875,51.2050765625,93.8810921875Q46.2397765625,94.9713921875,42.1446765625,97.98319218750001Q38.0495165625,100.9949921875,35.5292265625,105.4093921875Q33.0088125625,109.8252921875,32.4975525625,114.8825921875Q31.9862115625,119.9390921875,33.5717055625,124.7697921875Q35.9937865625,132.1535921875,42.2860965625,136.7115921875Q48.5779765625,141.26919218749998,56.3490765625,141.26919218749998ZM169.1399765625,138.4337921875Q165.1179765625,140.2717921875,160.6919765625,140.2733921875L160.6919765625,140.2733921875L56.3491765625,140.26919218749998Q48.9020765625,140.26919218749998,42.8727265625,135.9017921875Q36.8429465625,131.5338921875,34.5218965625,124.4580921875Q33.0024745625,119.8286921875,33.4924785625,114.98319218750001Q33.9824165625,110.13679218749999,36.3977165625,105.9050921875Q38.8128065625,101.67499218750001,42.7371565625,98.78879218750001Q46.6614765625,95.90269218750001,51.4195765625,94.8577921875Q56.1775765625,93.8112921875,60.9502765625,94.7871921875Q60.9985765625,94.7970921875,61.047776562500005,94.79739218750001Q61.0970765625,94.7975921875,61.145376562500005,94.78829218749999Q61.1937765625,94.77889218749999,61.2393765625,94.7602921875Q61.2849765625,94.7416921875,61.3260765625,94.7145921875Q61.3671765625,94.6873921875,61.4021765625,94.6527921875Q61.4371765625,94.6181921875,61.4646765625,94.57739218750001Q61.492276562499995,94.53659218749999,61.511376562500004,94.49119218749999Q61.5304765625,94.44579218749999,61.5403765625,94.3974921875Q61.5743765625,94.2310921875,61.499976562499995,94.0783921875Q58.1856765625,87.2749921875,60.4583765625,80.0566921875Q62.7310765625,72.8382921875,69.3450765625,69.1607921875Q75.9591765625,65.4832921875,83.2898765625,67.3620921875Q90.6206765625,69.2408921875,94.65057656249999,75.6462921875Q94.7034765625,75.7304921875,94.78467656250001,75.7879921875Q94.8657765625,75.8454921875,94.9627765625,75.86759218750001Q95.05977656249999,75.8896921875,95.1577765625,75.8728921875Q95.2557765625,75.8561921875,95.3399765625,75.8032921875Q95.41557656250001,75.7556921875,95.4700765625,75.6848921875Q95.5244765625,75.6140921875,95.5510765625,75.52889218749999Q98.6711765625,65.5231921875,107.1136765625,59.3132521875Q115.5562765625,53.1030581875,126.0365765625,53.1044931875Q134.83597656249998,53.1044921875,142.1959765625,57.4488521875Q149.1329765625,61.5432121875,153.34797656249998,68.5754921875Q157.54097656250002,75.5727921875,157.9309765625,83.61759218750001Q158.3399765625,92.0831921875,154.3809765625,99.7010921875Q154.3579765625,99.7447921875,154.34397656250002,99.7920921875Q154.33097656249998,99.83939218750001,154.3259765625,99.8883921875Q154.3219765625,99.9374921875,154.3279765625,99.9863921875Q154.3329765625,100.03539218750001,154.34797656249998,100.0822921875Q154.3629765625,100.1292921875,154.3859765625,100.1724921875Q154.4099765625,100.2155921875,154.4419765625,100.2532921875Q154.47297656249998,100.2909921875,154.5119765625,100.3217921875Q154.5499765625,100.3525921875,154.59397656250002,100.37529218750001Q154.6799765625,100.4198921875,154.7759765625,100.42929218750001Q154.87197656249998,100.43869218750001,154.9649765625,100.4114921875Q161.4609765625,98.5086921875,167.8009765625,100.8757921875Q174.1419765625,103.2426921875,177.8029765625,108.9358921875Q180.1949765625,112.6588921875,180.8229765625,117.0387921875Q181.4529765625,121.4190921875,180.2059765625,125.6625921875Q178.9609765625,129.90779218749998,176.0619765625,133.25129218749998Q173.1629765625,136.59649218750002,169.1399765625,138.4337921875Z" fill-rule="evenodd" fill="#39c5bb" fill-opacity="1" style="mix-blend-mode:passthrough"/></g></g></svg>
