<svg xmlns="http://www.w3.org/2000/svg" xmlns:xlink="http://www.w3.org/1999/xlink" fill="none" version="1.1" width="16" height="16" viewBox="0 0 16 16"><defs><clipPath id="master_svg0_5165_59438"><rect x="0" y="0" width="16" height="16" rx="0"/></clipPath></defs><g clip-path="url(#master_svg0_5165_59438)"><g><path d="M3.33349609375,10.000005876464844L3.33349609375,11.333335876464844C3.33327609375,12.031135876464845,3.87104609375,12.611035876464843,4.5668260937500005,12.663335876464844L4.66682609375,12.666635876464843L6.66682609375,12.666635876464843L6.66682609375,14.000035876464844L4.66682609375,14.000035876464844C3.19406609375,14.000035876464844,2.00016309375,12.806135876464843,2.00016309375,11.333335876464844L2.00016309375,10.000005876464844L3.33349609375,10.000005876464844ZM12.00019609375,6.666665876464844L14.93349609375,14.000035876464844L13.49679609375,14.000035876464844L12.69619609375,12.000035876464844L9.96949609375,12.000035876464844L9.17016609375,14.000035876464844L7.73416609375,14.000035876464844L10.66682609375,6.666665876464844L12.00019609375,6.666665876464844ZM11.33349609375,8.590005876464843L10.50216609375,10.666665876464844L12.16349609375,10.666665876464844L11.33349609375,8.590005876464843ZM5.33349609375,1.3333358764648438L5.33349609375,2.666665876464844L8.00016609375,2.666665876464844L8.00016609375,7.333335876464844L5.33349609375,7.333335876464844L5.33349609375,9.333335876464844L4.00016609375,9.333335876464844L4.00016609375,7.333335876464844L1.33349609375,7.333335876464844L1.33349609375,2.666665876464844L4.00016609375,2.666665876464844L4.00016609375,1.3333358764648438L5.33349609375,1.3333358764648438ZM11.33349609375,2.0000028764648436C12.80629609375,2.0000028764648436,14.00019609375,3.193905876464844,14.00019609375,4.666665876464844L14.00019609375,6.000005876464844L12.66679609375,6.000005876464844L12.66679609375,4.666665876464844C12.66679609375,3.930285876464844,12.06989609375,3.3333358764648438,11.33349609375,3.3333358764648438L9.33349609375,3.3333358764648438L9.33349609375,2.0000028764648436L11.33349609375,2.0000028764648436ZM4.00016609375,4.000005876464844L2.66682609375,4.000005876464844L2.66682609375,6.000005876464844L4.00016609375,6.000005876464844L4.00016609375,4.000005876464844ZM6.66682609375,4.000005876464844L5.33349609375,4.000005876464844L5.33349609375,6.000005876464844L6.66682609375,6.000005876464844L6.66682609375,4.000005876464844Z" fill="#4E5969" fill-opacity="1"/></g></g></svg>